# 3ds Max Wavefront OBJ Exporter v0.97b - (c)2007 guruware
# 创建的文件:08.11.2017 16:13:54

#
# object Plane001
#

v  -36.76268005 0.00000000 17.42978287
v  -36.76268005 0.00000000 34.85956573
v  -18.38134003 0.00000000 17.42978287
v  -18.38134003 0.00000000 34.85956573
v  0.00000000 0.00000000 17.42978287
v  0.00000000 0.00000000 34.85956573
v  18.38134003 0.00000000 17.42978287
v  18.38134003 0.00000000 34.85956573
v  36.76268005 0.00000000 17.42978287
v  36.76268005 0.00000000 34.85956573
v  -36.76268005 0.00000000 -0.00000000
v  -18.38134003 0.00000000 -0.00000000
v  0.00000000 0.00000000 -0.00000000
v  18.38134003 0.00000000 -0.00000000
v  36.76268005 0.00000000 -0.00000000
v  -36.76268005 0.00000000 -17.42978287
v  -18.38134003 0.00000000 -17.42978287
v  0.00000000 0.00000000 -17.42978287
v  18.38134003 0.00000000 -17.42978287
v  36.76268005 0.00000000 -17.42978287
v  -36.76268005 0.00000000 -34.85956573
v  -18.38134003 0.00000000 -34.85956573
v  0.00000000 0.00000000 -34.85956573
v  18.38134003 0.00000000 -34.85956573
v  36.76268005 0.00000000 -34.85956573
# 25 vertices

vn 0.00000000 1.00000000 -0.00000000
# 1 vertex normals

vt 0.00000000 0.25000000 0.00000000
vt 0.00000000 0.00000000 0.00000000
vt 0.25000000 0.25000000 0.00000000
vt 0.25000000 0.00000000 0.00000000
vt 0.50000000 0.25000000 0.00000000
vt 0.50000000 0.00000000 0.00000000
vt 0.75000000 0.25000000 0.00000000
vt 0.75000000 0.00000000 0.00000000
vt 1.00000000 0.25000000 0.00000000
vt 1.00000000 0.00000000 0.00000000
vt 0.00000000 0.50000000 0.00000000
vt 0.25000000 0.50000000 0.00000000
vt 0.50000000 0.50000000 0.00000000
vt 0.75000000 0.50000000 0.00000000
vt 1.00000000 0.50000000 0.00000000
vt 0.00000000 0.75000000 0.00000000
vt 0.25000000 0.75000000 0.00000000
vt 0.50000000 0.75000000 0.00000000
vt 0.75000000 0.75000000 0.00000000
vt 1.00000000 0.75000000 0.00000000
vt 0.00000000 1.00000000 0.00000000
vt 0.25000000 1.00000000 0.00000000
vt 0.50000000 1.00000000 0.00000000
vt 0.75000000 1.00000000 0.00000000
vt 1.00000000 1.00000000 0.00000000
# 25 texture coords

g Plane001
s 1
f 1/1/1 2/2/1 3/3/1 
f 4/4/1 3/3/1 2/2/1 
f 3/3/1 4/4/1 5/5/1 
f 6/6/1 5/5/1 4/4/1 
f 5/5/1 6/6/1 7/7/1 
f 8/8/1 7/7/1 6/6/1 
f 7/7/1 8/8/1 9/9/1 
f 10/10/1 9/9/1 8/8/1 
f 11/11/1 1/1/1 12/12/1 
f 3/3/1 12/12/1 1/1/1 
f 12/12/1 3/3/1 13/13/1 
f 5/5/1 13/13/1 3/3/1 
f 13/13/1 5/5/1 14/14/1 
f 7/7/1 14/14/1 5/5/1 
f 14/14/1 7/7/1 15/15/1 
f 9/9/1 15/15/1 7/7/1 
f 16/16/1 11/11/1 17/17/1 
f 12/12/1 17/17/1 11/11/1 
f 17/17/1 12/12/1 18/18/1 
f 13/13/1 18/18/1 12/12/1 
f 18/18/1 13/13/1 19/19/1 
f 14/14/1 19/19/1 13/13/1 
f 19/19/1 14/14/1 20/20/1 
f 15/15/1 20/20/1 14/14/1 
f 21/21/1 16/16/1 22/22/1 
f 17/17/1 22/22/1 16/16/1 
f 22/22/1 17/17/1 23/23/1 
f 18/18/1 23/23/1 17/17/1 
f 23/23/1 18/18/1 24/24/1 
f 19/19/1 24/24/1 18/18/1 
f 24/24/1 19/19/1 25/25/1 
f 20/20/1 25/25/1 19/19/1 
# 32 faces

